<mxfile host="app.diagrams.net" modified="2024-03-23T20:49:33.106Z" agent="Mozilla/5.0 (Windows NT 10.0; Win64; x64) AppleWebKit/537.36 (KHTML, like Gecko) Chrome/120.0.0.0 YaBrowser/24.1.0.0 Safari/537.36" etag="7v-kkh5kMUCwctkgBEo5" version="24.0.7" type="device">
  <diagram name="Страница — 1" id="h_CmLlEJqs-Y4hcS8QEQ">
    <mxGraphModel dx="1233" dy="667" grid="1" gridSize="10" guides="1" tooltips="1" connect="1" arrows="1" fold="1" page="1" pageScale="1" pageWidth="827" pageHeight="1169" math="0" shadow="0">
      <root>
        <mxCell id="0" />
        <mxCell id="1" parent="0" />
        <mxCell id="nesLzePyY0byDXlQZDYF-5" value="client" style="shape=umlActor;verticalLabelPosition=bottom;verticalAlign=top;html=1;outlineConnect=0;" vertex="1" parent="1">
          <mxGeometry x="420" y="30" width="30" height="60" as="geometry" />
        </mxCell>
        <mxCell id="nesLzePyY0byDXlQZDYF-7" value="auth" style="ellipse;whiteSpace=wrap;html=1;fillColor=#0050ef;fontColor=#ffffff;strokeColor=#001DBC;" vertex="1" parent="1">
          <mxGeometry x="260" y="160" width="110" height="80" as="geometry" />
        </mxCell>
        <mxCell id="nesLzePyY0byDXlQZDYF-9" value="create order" style="ellipse;whiteSpace=wrap;html=1;fillColor=#0050ef;strokeColor=#001DBC;fontColor=#ffffff;" vertex="1" parent="1">
          <mxGeometry x="536" y="160" width="110" height="80" as="geometry" />
        </mxCell>
        <mxCell id="nesLzePyY0byDXlQZDYF-10" value="cancel order" style="ellipse;whiteSpace=wrap;html=1;fillColor=#008a00;fontColor=#ffffff;strokeColor=#005700;" vertex="1" parent="1">
          <mxGeometry x="386" y="160" width="120" height="80" as="geometry" />
        </mxCell>
        <mxCell id="nesLzePyY0byDXlQZDYF-11" value="get order history" style="ellipse;whiteSpace=wrap;html=1;fillColor=#0050ef;fontColor=#ffffff;strokeColor=#001DBC;" vertex="1" parent="1">
          <mxGeometry x="130" y="160" width="110" height="80" as="geometry" />
        </mxCell>
        <mxCell id="nesLzePyY0byDXlQZDYF-12" value="get curr orders" style="ellipse;whiteSpace=wrap;html=1;fillColor=#0050ef;fontColor=#ffffff;strokeColor=#001DBC;" vertex="1" parent="1">
          <mxGeometry y="160" width="110" height="80" as="geometry" />
        </mxCell>
        <mxCell id="nesLzePyY0byDXlQZDYF-14" value="create review" style="ellipse;whiteSpace=wrap;html=1;fillColor=#0050ef;fontColor=#ffffff;strokeColor=#001DBC;" vertex="1" parent="1">
          <mxGeometry x="690" y="160" width="110" height="80" as="geometry" />
        </mxCell>
        <mxCell id="nesLzePyY0byDXlQZDYF-15" value="" style="endArrow=none;html=1;rounded=0;entryX=0.5;entryY=0.5;entryDx=0;entryDy=0;entryPerimeter=0;exitX=0.5;exitY=0;exitDx=0;exitDy=0;endFill=0;startArrow=classic;startFill=1;" edge="1" parent="1" source="nesLzePyY0byDXlQZDYF-12" target="nesLzePyY0byDXlQZDYF-5">
          <mxGeometry width="50" height="50" relative="1" as="geometry">
            <mxPoint x="390" y="170" as="sourcePoint" />
            <mxPoint x="440" y="120" as="targetPoint" />
          </mxGeometry>
        </mxCell>
        <mxCell id="nesLzePyY0byDXlQZDYF-16" value="" style="endArrow=none;html=1;rounded=0;entryX=0.5;entryY=0.5;entryDx=0;entryDy=0;entryPerimeter=0;exitX=0.5;exitY=0;exitDx=0;exitDy=0;endFill=0;startArrow=classic;startFill=1;" edge="1" parent="1" source="nesLzePyY0byDXlQZDYF-11" target="nesLzePyY0byDXlQZDYF-5">
          <mxGeometry width="50" height="50" relative="1" as="geometry">
            <mxPoint x="120" y="170" as="sourcePoint" />
            <mxPoint x="505" y="70" as="targetPoint" />
          </mxGeometry>
        </mxCell>
        <mxCell id="nesLzePyY0byDXlQZDYF-17" value="" style="endArrow=none;html=1;rounded=0;exitX=0.5;exitY=0;exitDx=0;exitDy=0;entryX=0.5;entryY=0.5;entryDx=0;entryDy=0;entryPerimeter=0;endFill=0;startArrow=classic;startFill=1;" edge="1" parent="1" source="nesLzePyY0byDXlQZDYF-7" target="nesLzePyY0byDXlQZDYF-5">
          <mxGeometry width="50" height="50" relative="1" as="geometry">
            <mxPoint x="130" y="180" as="sourcePoint" />
            <mxPoint x="515" y="80" as="targetPoint" />
          </mxGeometry>
        </mxCell>
        <mxCell id="nesLzePyY0byDXlQZDYF-18" value="" style="endArrow=none;html=1;rounded=0;entryX=0.5;entryY=0.5;entryDx=0;entryDy=0;entryPerimeter=0;exitX=0.5;exitY=0;exitDx=0;exitDy=0;endFill=0;startArrow=classic;startFill=1;" edge="1" parent="1" source="nesLzePyY0byDXlQZDYF-10" target="nesLzePyY0byDXlQZDYF-5">
          <mxGeometry width="50" height="50" relative="1" as="geometry">
            <mxPoint x="140" y="190" as="sourcePoint" />
            <mxPoint x="525" y="90" as="targetPoint" />
          </mxGeometry>
        </mxCell>
        <mxCell id="nesLzePyY0byDXlQZDYF-19" value="" style="endArrow=none;html=1;rounded=0;exitX=0.5;exitY=0;exitDx=0;exitDy=0;entryX=0.5;entryY=0.5;entryDx=0;entryDy=0;entryPerimeter=0;endFill=0;startArrow=classic;startFill=1;" edge="1" parent="1" source="nesLzePyY0byDXlQZDYF-9" target="nesLzePyY0byDXlQZDYF-5">
          <mxGeometry width="50" height="50" relative="1" as="geometry">
            <mxPoint x="150" y="200" as="sourcePoint" />
            <mxPoint x="490" y="60" as="targetPoint" />
          </mxGeometry>
        </mxCell>
        <mxCell id="nesLzePyY0byDXlQZDYF-20" value="" style="endArrow=none;html=1;rounded=0;entryX=0.5;entryY=0.5;entryDx=0;entryDy=0;entryPerimeter=0;exitX=0.5;exitY=0;exitDx=0;exitDy=0;endFill=0;startArrow=classic;startFill=1;" edge="1" parent="1" source="nesLzePyY0byDXlQZDYF-14" target="nesLzePyY0byDXlQZDYF-5">
          <mxGeometry width="50" height="50" relative="1" as="geometry">
            <mxPoint x="160" y="210" as="sourcePoint" />
            <mxPoint x="545" y="110" as="targetPoint" />
          </mxGeometry>
        </mxCell>
        <mxCell id="nesLzePyY0byDXlQZDYF-21" value="cook&lt;div&gt;&lt;br&gt;&lt;/div&gt;" style="shape=umlActor;verticalLabelPosition=bottom;verticalAlign=top;html=1;outlineConnect=0;" vertex="1" parent="1">
          <mxGeometry x="470" y="300" width="30" height="60" as="geometry" />
        </mxCell>
        <mxCell id="nesLzePyY0byDXlQZDYF-23" value="get curr orders" style="ellipse;whiteSpace=wrap;html=1;fillColor=#0050ef;fontColor=#ffffff;strokeColor=#001DBC;" vertex="1" parent="1">
          <mxGeometry x="180" y="370" width="120" height="80" as="geometry" />
        </mxCell>
        <mxCell id="nesLzePyY0byDXlQZDYF-24" value="" style="endArrow=classic;html=1;rounded=0;exitX=0.5;exitY=0.5;exitDx=0;exitDy=0;exitPerimeter=0;entryX=0.5;entryY=0;entryDx=0;entryDy=0;" edge="1" parent="1" source="nesLzePyY0byDXlQZDYF-21" target="nesLzePyY0byDXlQZDYF-23">
          <mxGeometry width="50" height="50" relative="1" as="geometry">
            <mxPoint x="500" y="450" as="sourcePoint" />
            <mxPoint x="550" y="400" as="targetPoint" />
          </mxGeometry>
        </mxCell>
        <mxCell id="nesLzePyY0byDXlQZDYF-25" value="get order history" style="ellipse;whiteSpace=wrap;html=1;fillColor=#a20025;fontColor=#ffffff;strokeColor=#6F0000;" vertex="1" parent="1">
          <mxGeometry x="266" y="505" width="120" height="80" as="geometry" />
        </mxCell>
        <mxCell id="nesLzePyY0byDXlQZDYF-26" value="" style="endArrow=classic;html=1;rounded=0;exitX=0.5;exitY=0.5;exitDx=0;exitDy=0;exitPerimeter=0;entryX=0.5;entryY=0;entryDx=0;entryDy=0;" edge="1" parent="1" source="nesLzePyY0byDXlQZDYF-21" target="nesLzePyY0byDXlQZDYF-25">
          <mxGeometry width="50" height="50" relative="1" as="geometry">
            <mxPoint x="500" y="450" as="sourcePoint" />
            <mxPoint x="550" y="400" as="targetPoint" />
          </mxGeometry>
        </mxCell>
        <mxCell id="nesLzePyY0byDXlQZDYF-28" value="send order to delivery" style="ellipse;whiteSpace=wrap;html=1;fillColor=#0050ef;fontColor=#ffffff;strokeColor=#001DBC;" vertex="1" parent="1">
          <mxGeometry x="470" y="420" width="120" height="80" as="geometry" />
        </mxCell>
        <mxCell id="nesLzePyY0byDXlQZDYF-29" value="" style="endArrow=classic;html=1;rounded=0;exitX=0.5;exitY=0.5;exitDx=0;exitDy=0;exitPerimeter=0;entryX=0.5;entryY=0;entryDx=0;entryDy=0;" edge="1" parent="1" source="nesLzePyY0byDXlQZDYF-21" target="nesLzePyY0byDXlQZDYF-28">
          <mxGeometry width="50" height="50" relative="1" as="geometry">
            <mxPoint x="450" y="350" as="sourcePoint" />
            <mxPoint x="500" y="300" as="targetPoint" />
          </mxGeometry>
        </mxCell>
        <mxCell id="nesLzePyY0byDXlQZDYF-30" value="cancel order" style="ellipse;whiteSpace=wrap;html=1;fillColor=#008a00;fontColor=#ffffff;strokeColor=#005700;" vertex="1" parent="1">
          <mxGeometry x="660" y="360" width="120" height="80" as="geometry" />
        </mxCell>
        <mxCell id="nesLzePyY0byDXlQZDYF-31" value="" style="endArrow=classic;html=1;rounded=0;exitX=0.5;exitY=0.5;exitDx=0;exitDy=0;exitPerimeter=0;entryX=0.5;entryY=0;entryDx=0;entryDy=0;" edge="1" parent="1" source="nesLzePyY0byDXlQZDYF-21" target="nesLzePyY0byDXlQZDYF-30">
          <mxGeometry width="50" height="50" relative="1" as="geometry">
            <mxPoint x="450" y="350" as="sourcePoint" />
            <mxPoint x="500" y="300" as="targetPoint" />
          </mxGeometry>
        </mxCell>
        <mxCell id="nesLzePyY0byDXlQZDYF-32" value="deliverant" style="shape=umlActor;verticalLabelPosition=bottom;verticalAlign=top;html=1;outlineConnect=0;" vertex="1" parent="1">
          <mxGeometry x="476" y="610" width="30" height="60" as="geometry" />
        </mxCell>
        <mxCell id="nesLzePyY0byDXlQZDYF-33" value="get curr orders" style="ellipse;whiteSpace=wrap;html=1;fillColor=#0050ef;fontColor=#ffffff;strokeColor=#001DBC;" vertex="1" parent="1">
          <mxGeometry x="190" y="680" width="120" height="80" as="geometry" />
        </mxCell>
        <mxCell id="nesLzePyY0byDXlQZDYF-34" value="" style="endArrow=classic;html=1;rounded=0;exitX=0.5;exitY=0.5;exitDx=0;exitDy=0;exitPerimeter=0;entryX=0.5;entryY=0;entryDx=0;entryDy=0;" edge="1" parent="1" source="nesLzePyY0byDXlQZDYF-32" target="nesLzePyY0byDXlQZDYF-33">
          <mxGeometry width="50" height="50" relative="1" as="geometry">
            <mxPoint x="510" y="630" as="sourcePoint" />
            <mxPoint x="560" y="580" as="targetPoint" />
          </mxGeometry>
        </mxCell>
        <mxCell id="nesLzePyY0byDXlQZDYF-35" value="get order" style="ellipse;whiteSpace=wrap;html=1;fillColor=#008a00;fontColor=#ffffff;strokeColor=#005700;" vertex="1" parent="1">
          <mxGeometry x="425" y="780" width="120" height="80" as="geometry" />
        </mxCell>
        <mxCell id="nesLzePyY0byDXlQZDYF-36" value="" style="endArrow=classic;html=1;rounded=0;exitX=0.5;exitY=0.5;exitDx=0;exitDy=0;exitPerimeter=0;entryX=0.5;entryY=0;entryDx=0;entryDy=0;" edge="1" parent="1" source="nesLzePyY0byDXlQZDYF-32" target="nesLzePyY0byDXlQZDYF-35">
          <mxGeometry width="50" height="50" relative="1" as="geometry">
            <mxPoint x="510" y="630" as="sourcePoint" />
            <mxPoint x="560" y="580" as="targetPoint" />
          </mxGeometry>
        </mxCell>
        <mxCell id="nesLzePyY0byDXlQZDYF-37" value="close order" style="ellipse;whiteSpace=wrap;html=1;fillColor=#008a00;fontColor=#ffffff;strokeColor=#005700;" vertex="1" parent="1">
          <mxGeometry x="600" y="690" width="120" height="80" as="geometry" />
        </mxCell>
        <mxCell id="nesLzePyY0byDXlQZDYF-38" value="" style="endArrow=classic;html=1;rounded=0;exitX=0.5;exitY=0.5;exitDx=0;exitDy=0;exitPerimeter=0;entryX=0.5;entryY=0;entryDx=0;entryDy=0;" edge="1" parent="1" source="nesLzePyY0byDXlQZDYF-32" target="nesLzePyY0byDXlQZDYF-37">
          <mxGeometry width="50" height="50" relative="1" as="geometry">
            <mxPoint x="510" y="630" as="sourcePoint" />
            <mxPoint x="560" y="580" as="targetPoint" />
          </mxGeometry>
        </mxCell>
        <mxCell id="nesLzePyY0byDXlQZDYF-39" value="&lt;h1 style=&quot;margin-top: 0px;&quot;&gt;Redis&lt;/h1&gt;" style="text;html=1;whiteSpace=wrap;overflow=hidden;rounded=0;" vertex="1" parent="1">
          <mxGeometry x="960" y="10" width="180" height="120" as="geometry" />
        </mxCell>
        <mxCell id="nesLzePyY0byDXlQZDYF-41" value="User:{userId}" style="swimlane;fontStyle=0;childLayout=stackLayout;horizontal=1;startSize=30;horizontalStack=0;resizeParent=1;resizeParentMax=0;resizeLast=0;collapsible=1;marginBottom=0;whiteSpace=wrap;html=1;" vertex="1" parent="1">
          <mxGeometry x="960" y="160" width="140" height="120" as="geometry" />
        </mxCell>
        <mxCell id="nesLzePyY0byDXlQZDYF-42" value="Order 1" style="text;strokeColor=none;fillColor=none;align=left;verticalAlign=middle;spacingLeft=4;spacingRight=4;overflow=hidden;points=[[0,0.5],[1,0.5]];portConstraint=eastwest;rotatable=0;whiteSpace=wrap;html=1;" vertex="1" parent="nesLzePyY0byDXlQZDYF-41">
          <mxGeometry y="30" width="140" height="30" as="geometry" />
        </mxCell>
        <mxCell id="nesLzePyY0byDXlQZDYF-43" value="Order 2" style="text;strokeColor=none;fillColor=none;align=left;verticalAlign=middle;spacingLeft=4;spacingRight=4;overflow=hidden;points=[[0,0.5],[1,0.5]];portConstraint=eastwest;rotatable=0;whiteSpace=wrap;html=1;" vertex="1" parent="nesLzePyY0byDXlQZDYF-41">
          <mxGeometry y="60" width="140" height="30" as="geometry" />
        </mxCell>
        <mxCell id="nesLzePyY0byDXlQZDYF-44" value="Order 3" style="text;strokeColor=none;fillColor=none;align=left;verticalAlign=middle;spacingLeft=4;spacingRight=4;overflow=hidden;points=[[0,0.5],[1,0.5]];portConstraint=eastwest;rotatable=0;whiteSpace=wrap;html=1;" vertex="1" parent="nesLzePyY0byDXlQZDYF-41">
          <mxGeometry y="90" width="140" height="30" as="geometry" />
        </mxCell>
      </root>
    </mxGraphModel>
  </diagram>
</mxfile>
